<svg xmlns="http://www.w3.org/2000/svg" viewBox="0 0 800 600" role="img" aria-label="デモ画像：LINE運用・構築">
  <defs>
    <linearGradient id="g2" x1="0" y1="0" x2="1" y2="1">
      <stop offset="0%" stop-color="#1b1b22"/><stop offset="100%" stop-color="#0a0a0c"/>
    </linearGradient>
  </defs>
  <rect width="800" height="600" fill="url(#g2)"/>
  <g fill="none" stroke="#bfa06a" stroke-opacity="0.7" stroke-width="2">
    <path d="M300,250 h200 a20,20 0 0 1 20,20 v60 a20,20 0 0 1 -20,20 h-150 l-50,40 v-40 a20,20 0 0 1 -20,-20 v-60 a20,20 0 0 1 20,-20 Z"/>
  </g>
  <g fill="#bfa06a" fill-opacity="0.85">
    <circle cx="360" cy="300" r="7"/><circle cx="400" cy="300" r="7"/><circle cx="440" cy="300" r="7"/>
  </g>
  <g stroke="#bfa06a" stroke-opacity="0.12">
    <line x1="0" y1="120" x2="800" y2="120"/><line x1="0" y1="480" x2="800" y2="480"/>
  </g>
</svg>
